<svg xmlns="http://www.w3.org/2000/svg" width="45" height="44" viewBox="0 0 45 44">
    <defs>
        <linearGradient id="a" x1="2.483%" x2="97.414%" y1="0%" y2="91.912%">
            <stop offset="0%" stop-color="#06CCA4"/>
            <stop offset="100%" stop-color="#05A887"/>
        </linearGradient>
    </defs>
    <g fill="none" fill-rule="evenodd">
        <ellipse cx="22.091" cy="22" fill="url(#a)" rx="22.091" ry="22"/>
        <path fill="#FFF" stroke="#FFF" stroke-width=".5" d="M20.828 31.434a4.005 4.005 0 0 1-1.495-.599c-.05-.032-.097-.067-.146-.101-.02-.014-.039-.028-.06-.038a.277.277 0 0 1-.059-.04l-.038-.032-1.026-.861-.033-.028a.289.289 0 0 1-.053-.057c-.02-.027-.041-.052-.062-.078a1.161 1.161 0 0 1 .024-1.488c.143-.17.32-.29.53-.359a1.143 1.143 0 0 1 1.097.2l.126.104.115.096.101.079.069.05c.034.026.069.051.105.074l.113.074a3.296 3.296 0 0 0 1.634.493c.247.01.492-.004.736-.044.35-.059.681-.17.997-.334a3.723 3.723 0 0 0 .805-.564c.116-.108.223-.225.322-.35.027-.033.054-.067.08-.102a.862.862 0 0 0 .066-.094 3.669 3.669 0 0 0 .44-.856c.16-.45.221-.91.185-1.385a3.82 3.82 0 0 0-.166-.847 3.121 3.121 0 0 0-.586-1.077 3.21 3.21 0 0 0-.165-.187c-.06-.061-.119-.123-.183-.18-.064-.056-.128-.113-.194-.168l-.43-.363c-.016-.013-.032-.028-.05-.039-.007-.003-.021-.002-.027.004l-.014.016-.037.044c-.455.54-.909 1.082-1.363 1.623l-.046.056c-.012.015-.013.026.005.043a.633.633 0 0 0 .022.019l.038.032.431.362c.026.021.05.043.075.065a1.167 1.167 0 0 1 .056 1.65c-.16.17-.353.287-.58.344a1.134 1.134 0 0 1-1.018-.232l-.328-.274-1.55-1.3-1.72-1.442c-.062-.052-.122-.106-.182-.16a1.003 1.003 0 0 1-.107-.104c-.046-.041-.087-.088-.128-.134a3.635 3.635 0 0 1-.327-.412c-.164-.238-.3-.49-.411-.757-.115-.276-.2-.561-.258-.854a5.263 5.263 0 0 1-.076-1.499 6.396 6.396 0 0 1 .838-2.608c.046-.08.092-.158.141-.235.042-.067.086-.133.13-.2.042-.064.089-.124.13-.189.015-.022.033-.042.048-.063l.107-.145c.015-.022.031-.043.048-.063l.213-.254c.017-.02.035-.04.054-.059l.124-.13c.03-.031.059-.064.09-.093a2.227 2.227 0 0 1 .117-.117c.04-.036.077-.074.116-.109.038-.034.074-.069.112-.102l.098-.085a6.55 6.55 0 0 1 1.127-.782c.4-.22.817-.394 1.253-.521v-.51c0-.637.528-1.158 1.173-1.158s1.172.521 1.172 1.159v.37a4.15 4.15 0 0 1 1.45.571c.049.033.098.067.144.104l.03.02a.354.354 0 0 1 .07.049l1.167.98c.024.02.046.041.065.065.021.026.045.05.066.075.087.11.15.231.187.366.049.175.058.353.03.533-.02.134-.066.26-.133.377a1.2 1.2 0 0 1-.193.251 1.151 1.151 0 0 1-.746.347 1.125 1.125 0 0 1-.782-.232l-.2-.16a91.524 91.524 0 0 0-.235-.186.945.945 0 0 0-.093-.066l-.024-.016a3.14 3.14 0 0 0-1.104-.48 3.74 3.74 0 0 0-.915-.09 3.313 3.313 0 0 0-1.568.438 3.804 3.804 0 0 0-.632.45c-.04.037-.083.073-.12.114a3.093 3.093 0 0 0-.28.31c-.026.029-.05.059-.073.09a1.027 1.027 0 0 0-.08.11 3.48 3.48 0 0 0-.604 2.246c.023.293.08.578.173.855a3.326 3.326 0 0 0 .621 1.098l.133.149c.076.082.159.156.244.229l.529.444c.014.012.028.026.046.034.004.002.016.001.02-.003l.01-.01.015-.015.032-.04 1.358-1.617c.017-.02.034-.04.05-.062.011-.014.007-.026-.005-.037a.268.268 0 0 0-.016-.015l-.043-.036-.355-.298-.14-.122a1.008 1.008 0 0 1-.223-.293 1.179 1.179 0 0 1 1.513-1.62c.062.026.12.059.175.095.026.016.05.036.075.055l.093.077 1.68 1.41 1.78 1.493c.066.055.13.11.195.167.041.036.082.072.119.113l.04.04.06.06c.03.035.061.067.091.1a4 4 0 0 1 .55.795c.146.277.258.567.342.87.108.392.166.793.176 1.2.01.363-.019.722-.078 1.08a6.293 6.293 0 0 1-.462 1.531 7.315 7.315 0 0 1-.377.729c-.042.07-.085.139-.13.208-.032.05-.067.099-.099.15-.008.014-.019.028-.028.041-.021.03-.041.06-.063.089l-.073.098c-.017.023-.035.045-.049.071-.01.02-.025.035-.039.052l-.352.42-.014.016c-.01.01-.02.022-.03.03-.023.019-.042.04-.062.061a1.72 1.72 0 0 1-.105.11c-.012.01-.024.023-.035.035-.024.025-.047.049-.072.07a.351.351 0 0 0-.021.02c-.051.052-.105.1-.158.148a5.967 5.967 0 0 1-.358.302 7.129 7.129 0 0 1-.413.3 6.24 6.24 0 0 1-1.747.822v.547c0 .638-.527 1.159-1.172 1.159a1.169 1.169 0 0 1-1.173-1.159v-.407z"/>
    </g>
</svg>
