<svg xmlns="http://www.w3.org/2000/svg" width="170" height="130" viewBox="0 0 170 130">
    <g fill="none" fill-rule="nonzero">
        <rect width="169" height="129" x=".5" y=".5" stroke="#D8DEED" rx="4"/>
        <path fill="#36B37E" d="M74.588 102.216H95.33a5.515 5.515 0 1 1 0 11.03l-20.742-.001a5.515 5.515 0 1 1 0-11.03z"/>
        <g transform="translate(47.29 32.833)">
            <ellipse cx="37.67" cy="14.968" fill="#D8DEED" rx="15.091" ry="14.968"/>
            <path fill="#F2F6FB" d="M37.661 14.755c-2.163 0-3.917-1.716-3.917-3.832 0-2.117 1.754-3.833 3.917-3.833 2.164 0 3.917 1.716 3.917 3.833 0 2.116-1.753 3.832-3.917 3.832zm0 1.917c3.921 0 7.1 3.11 7.1 6.946h-14.2c0-3.836 3.18-6.946 7.1-6.946z"/>
            <path fill="#E1E5F0" d="M3.343 38.997H72.08a3.22 3.22 0 0 1 3.22 3.22V44.3a3.22 3.22 0 0 1-3.22 3.22H3.343a3.22 3.22 0 0 1-3.22-3.22v-2.084a3.22 3.22 0 0 1 3.22-3.22zm0 13.213H72.08a3.22 3.22 0 0 1 3.22 3.22v2.084a3.22 3.22 0 0 1-3.22 3.22H3.343a3.22 3.22 0 0 1-3.22-3.22V55.43a3.22 3.22 0 0 1 3.22-3.22z"/>
        </g>
        <path fill="#979DAE" d="M0 3.999A4 4 0 0 1 3.993 0h162.014A3.995 3.995 0 0 1 170 3.999v10.705H0V4z"/>
        <ellipse cx="9.892" cy="7.519" fill="#FF5645" rx="3.185" ry="3.175"/>
        <ellipse cx="20.286" cy="7.519" fill="#FFCB3D" rx="3.185" ry="3.175"/>
        <ellipse cx="31.016" cy="7.519" fill="#3ABF7C" rx="3.185" ry="3.175"/>
    </g>
</svg>
