<svg xmlns="http://www.w3.org/2000/svg" xmlns:xlink="http://www.w3.org/1999/xlink" width="235" height="142" viewBox="0 0 235 142">
    <defs>
        <path id="a" d="M6.058 6.207H3.29v.737a1.596 1.596 0 1 1-3.191 0V5.117a1.596 1.596 0 0 1 0-1.015V1.597a1.596 1.596 0 1 1 3.191 0v1.416h2.772l.001-.737A1.598 1.598 0 0 1 7.661.679a1.594 1.594 0 0 1 1.594 1.597l-.007 5.347A1.598 1.598 0 0 1 7.65 9.22a1.594 1.594 0 0 1-1.594-1.597l.002-1.416z"/>
    </defs>
    <g fill="none" fill-rule="evenodd">
        <path stroke="#979DAE" stroke-dasharray="2,3" stroke-linecap="square" d="M117.5 75V41.714M136.354 91.466l31.202-30.317M100.76 90.76L70.441 60.441M191.158 108.5h-38.776"/>
        <rect width="41" height="41" x="97.5" y=".5" stroke="#979DAE" rx="20.5"/>
        <rect width="41" height="41" x="162.5" y="23.5" stroke="#979DAE" rx="20.5"/>
        <g fill="#979DAE">
            <path d="M171.825 43.095l22.375-.05c.425 0 .675-.481.425-.835l-2.95-4.302a.49.49 0 0 0-.425-.227l-4.25.025v2.733h-8V37.73l-4.25.026a.49.49 0 0 0-.425.227L171.4 42.26c-.25.354 0 .835.425.835z"/>
            <path fill-rule="nonzero" d="M194.525 51.799h-1.3v-8.097l-20.45.076V51.9h-1.3c-.2 0-.35.152-.35.354v1.164c0 .202.15.354.35.354l23.05-.076c.2 0 .35-.151.35-.354v-1.164c0-.202-.15-.38-.35-.38zm-5.65-5.465h2.175c.2 0 .35.152.35.354v2.075c0 .202-.15.354-.35.354h-2.175c-.2 0-.35-.152-.35-.354v-2.075c0-.202.15-.354.35-.354zm-2.25.354v5.161h-3.3v-5.515h2.95a.36.36 0 0 1 .35.354zm-11.675-.354h2.175c.2 0 .35.152.35.354v2.075c0 .202-.15.354-.35.354h-2.175c-.2 0-.35-.152-.35-.354v-2.075c.025-.202.175-.354.35-.354zm4.725 0h2.95v5.515h-3.3v-5.161c0-.202.15-.354.35-.354zM186.375 33h-6.75v6.831h6.75V33zm-1.5 4.124h-1.15v1.19a.172.172 0 0 1-.175.176h-1.075a.172.172 0 0 1-.175-.177V37.15h-1.15a.172.172 0 0 1-.175-.177v-1.088c0-.1.075-.177.175-.177h1.15v-1.164c0-.1.075-.177.175-.177h1.075c.1 0 .175.076.175.177v1.164h1.15c.1 0 .175.076.175.177v1.088c0 .076-.075.152-.175.152z"/>
        </g>
        <rect width="41" height="41" x="37.5" y="23.5" stroke="#979DAE" rx="20.5"/>
        <g fill="#979DAE" fill-rule="nonzero">
            <path d="M124.207 9h-12.414a.414.414 0 0 0-.414.414v23.172c0 .229.186.414.414.414h2.897v-6.128a.46.46 0 0 1 .413-.493h5.794a.46.46 0 0 1 .413.493V33h2.897a.414.414 0 0 0 .414-.414V9.414a.414.414 0 0 0-.414-.414zm-7.448 14.897h-2.483v-2.483h2.483v2.483zm-.414-6.207v-1.242h-1.242a.414.414 0 0 1-.413-.414v-2.482c0-.229.185-.414.413-.414h1.242v-1.241c0-.229.185-.414.414-.414h2.482c.229 0 .414.185.414.414v1.24h1.242c.228 0 .413.186.413.415v2.482a.414.414 0 0 1-.413.414h-1.242v1.242a.414.414 0 0 1-.414.413h-2.482a.414.414 0 0 1-.414-.413zm5.38 6.207h-2.484v-2.483h2.483v2.483zM110.552 19.759h-4.138a.414.414 0 0 0-.414.413v12.414c0 .229.185.414.414.414h4.138V19.759zm-1.242 9.103h-2.069v-2.069h2.07v2.07zm0-4.138h-2.069v-2.069h2.07v2.07zM129.586 19.759h-4.138V33h4.138a.414.414 0 0 0 .414-.414V20.172a.414.414 0 0 0-.414-.413zm-.827 9.103h-2.07v-2.069h2.07v2.07zm0-4.138h-2.07v-2.069h2.07v2.07z"/>
        </g>
        <rect width="41" height="41" x="193.5" y="87.5" stroke="#A4AAB8" rx="20.5"/>
        <rect width="41" height="41" x=".5" y="87.5" stroke="#A4AAB8" rx="20.5"/>
        <path fill="#979DAE" d="M205.097 111c-1.71 0-3.097-1.343-3.097-3s1.386-3 3.097-3c1.71 0 3.097 1.343 3.097 3s-1.387 3-3.097 3zm17.806 0c-1.71 0-3.097-1.343-3.097-3s1.387-3 3.097-3 3.097 1.343 3.097 3-1.386 3-3.097 3zM214 111c-1.71 0-3.097-1.343-3.097-3s1.387-3 3.097-3 3.097 1.343 3.097 3-1.387 3-3.097 3z"/>
        <path stroke="#979DAE" stroke-dasharray="2,3" stroke-linecap="square" d="M84 108.5l-42-.5"/>
        <rect width="67" height="67" x="86" y="75" fill="#F2F6FB" fill-rule="nonzero" rx="33.5"/>
        <g transform="translate(97 86)">
            <circle cx="23" cy="23" r="23" fill="#36B37E"/>
            <path fill="#FFF" stroke="#FFF" stroke-width=".5" d="M21.546 34.435a5.192 5.192 0 0 1-1.867-.766c-.065-.041-.126-.086-.189-.13-.025-.018-.05-.036-.077-.05a.36.36 0 0 1-.076-.05l-.049-.042-1.32-1.108-.043-.036a.376.376 0 0 1-.068-.073c-.025-.035-.053-.067-.08-.1a1.499 1.499 0 0 1-.334-.914 1.504 1.504 0 0 1 .353-.989c.183-.215.407-.368.676-.455a1.469 1.469 0 0 1 1.243.147c.057.036.112.075.164.117.055.044.11.089.163.134.05.04.098.083.148.123l.13.102c.03.022.06.043.088.066.044.033.089.065.135.095.05.03.097.064.146.094a4.301 4.301 0 0 0 2.097.643c.316.015.63 0 .942-.051a4.272 4.272 0 0 0 1.275-.419 4.697 4.697 0 0 0 1.027-.715 4.02 4.02 0 0 0 .41-.445c.035-.043.069-.086.102-.13a1.084 1.084 0 0 0 .084-.12c.077-.11.146-.226.213-.343.137-.239.251-.488.343-.748a4.202 4.202 0 0 0 .228-1.77 4.908 4.908 0 0 0-.22-1.084 4.039 4.039 0 0 0-.757-1.382 4.179 4.179 0 0 0-.214-.24c-.076-.078-.152-.157-.235-.23-.083-.073-.165-.146-.25-.217l-.553-.467c-.021-.017-.041-.037-.065-.05-.008-.005-.027-.003-.034.004l-.019.02-.047.056-1.733 2.066-.058.07c-.016.02-.017.034.006.056a.824.824 0 0 0 .028.024l.05.042.554.465.097.085c.267.24.432.582.47.928a1.48 1.48 0 0 1-.386 1.183 1.498 1.498 0 0 1-1.854.269 1.452 1.452 0 0 1-.193-.14l-.422-.352-1.996-1.675v.002l-2.213-1.857c-.08-.067-.158-.136-.236-.205a1.306 1.306 0 0 1-.099-.096.606.606 0 0 0-.038-.039c-.06-.053-.112-.113-.165-.171a5.41 5.41 0 0 1-.422-.53 5.313 5.313 0 0 1-.532-.972 5.77 5.77 0 0 1-.336-1.093 6.728 6.728 0 0 1-.11-1.917 7.795 7.795 0 0 1 .324-1.652 8.46 8.46 0 0 1 .91-1.975l.164-.254c.054-.082.114-.16.167-.241.018-.028.04-.054.06-.081l.136-.185.061-.08.272-.323c.021-.026.044-.05.068-.075l.158-.165c.038-.04.075-.081.115-.118l.046-.046c.033-.036.069-.07.104-.103.049-.046.097-.094.146-.139l.143-.13c.04-.036.083-.07.125-.107a8.248 8.248 0 0 1 1.438-.992 7.856 7.856 0 0 1 1.673-.677v-.7c0-.82.67-1.49 1.491-1.49.82 0 1.492.671 1.493 1.491v.57a5.373 5.373 0 0 1 1.809.73c.063.042.126.086.186.133.012.01.024.02.038.026a.46.46 0 0 1 .09.064l1.503 1.261c.03.026.058.053.084.084.026.033.057.063.084.097.113.14.194.296.243.469.063.224.077.45.043.681a1.371 1.371 0 0 1-.17.482 1.51 1.51 0 0 1-.244.32 1.458 1.458 0 0 1-.953.437 1.453 1.453 0 0 1-1.004-.302l-.258-.206-.302-.24a1.23 1.23 0 0 0-.12-.085l-.03-.02a4.078 4.078 0 0 0-1.417-.623 4.817 4.817 0 0 0-1.174-.12 4.214 4.214 0 0 0-2.005.547 4.797 4.797 0 0 0-.806.571c-.053.047-.106.092-.154.144a3.89 3.89 0 0 0-.357.393c-.032.038-.062.077-.092.115a1.291 1.291 0 0 0-.1.142 4.259 4.259 0 0 0-.578 1.192 4.424 4.424 0 0 0-.18 1.676c.03.373.105.738.227 1.093a4.309 4.309 0 0 0 .805 1.408 3.694 3.694 0 0 0 .485.486c.226.192.453.382.68.572.02.016.037.033.06.044.005.003.02.001.025-.004l.014-.012.018-.02.041-.05 1.728-2.058.063-.078c.015-.019.01-.034-.006-.049a.35.35 0 0 0-.02-.018l-.056-.048-.457-.383c-.06-.051-.12-.104-.18-.157a1.31 1.31 0 0 1-.288-.376 1.507 1.507 0 0 1-.07-1.243 1.335 1.335 0 0 1 .186-.336 1.49 1.49 0 0 1 2.035-.359c.034.022.065.047.096.072l.12.1 2.164 1.815 2.291 1.92c.084.071.167.143.25.216.054.046.105.093.153.145.017.018.035.034.053.051.026.025.052.052.076.08a4.72 4.72 0 0 1 .347.403c.182.233.343.482.482.744.188.355.335.727.443 1.114a6.39 6.39 0 0 1 .236 1.537c.014.463-.02.923-.093 1.38a7.957 7.957 0 0 1-.58 1.954 9.217 9.217 0 0 1-.478.928 10.45 10.45 0 0 1-.164.265c-.042.064-.086.126-.126.192-.011.018-.024.035-.037.052l-.079.113c-.03.042-.062.083-.093.125-.022.03-.045.058-.062.09-.013.025-.032.045-.05.066l-.448.534-.017.021c-.013.014-.025.028-.04.04-.028.022-.053.05-.078.076a2.164 2.164 0 0 1-.133.139c-.016.014-.03.03-.045.046-.03.03-.06.062-.092.09a.442.442 0 0 0-.027.025c-.064.065-.133.125-.201.187a7.509 7.509 0 0 1-.456.383c-.171.134-.347.261-.527.382a7.892 7.892 0 0 1-2.303 1.057v.749c0 .82-.67 1.49-1.491 1.49-.821 0-1.493-.671-1.493-1.491v-.618z"/>
            <g transform="rotate(-50 33.537 -5.876)">
                <mask id="b" fill="#fff">
                    <use xlink:href="#a"/>
                </mask>
                <g mask="url(#b)">
                    <path fill="#000" d="M6.054 6.256H3.29v.774a1.596 1.596 0 1 1-3.191 0V2.288a1.596 1.596 0 1 1 3.191 0v.774h2.764v-.774a1.596 1.596 0 1 1 3.192 0V7.03a1.596 1.596 0 1 1-3.192 0v-.774z"/>
                    <path fill="#FFF" d="M6.054 6.256H3.29v.774a1.596 1.596 0 1 1-3.191 0V2.288a1.596 1.596 0 1 1 3.191 0v.774h2.764v-.774a1.596 1.596 0 1 1 3.192 0V7.03a1.596 1.596 0 1 1-3.192 0v-.774z"/>
                </g>
            </g>
        </g>
        <g fill="#979DAE" fill-rule="nonzero">
            <path d="M64.207 32H51.793a.414.414 0 0 0-.414.414v23.172c0 .229.186.414.414.414h2.897v-6.128a.46.46 0 0 1 .413-.493h5.794a.46.46 0 0 1 .413.493V56h2.897a.414.414 0 0 0 .414-.414V32.414a.414.414 0 0 0-.414-.414zm-7.448 14.897h-2.483v-2.483h2.483v2.483zm4.965 0h-2.483v-2.483h2.483v2.483zM50.552 42.759h-4.138a.414.414 0 0 0-.414.413v12.414c0 .229.185.414.414.414h4.138V42.759zm-1.242 9.103h-2.069v-2.069h2.07v2.07zm0-4.138h-2.069v-2.069h2.07v2.07zM69.586 42.759h-4.138V56h4.138a.414.414 0 0 0 .414-.414V43.172a.414.414 0 0 0-.414-.413zm-.827 9.103h-2.07v-2.069h2.07v2.07zm0-4.138h-2.07v-2.069h2.07v2.07z"/>
        </g>
        <g fill="#979DAE" fill-rule="nonzero">
            <path d="M27.207 95H14.793a.414.414 0 0 0-.414.414v23.172c0 .229.186.414.414.414h2.897v-6.128a.46.46 0 0 1 .413-.493h5.794a.46.46 0 0 1 .413.493V119h2.897a.414.414 0 0 0 .414-.414V95.414a.414.414 0 0 0-.414-.414zm-7.448 14.897h-2.483v-2.483h2.483v2.483zm4.965 0h-2.483v-2.483h2.483v2.483zM13.552 105.759H9.414a.414.414 0 0 0-.414.413v12.414c0 .229.185.414.414.414h4.138v-13.241zm-1.242 9.103h-2.069v-2.069h2.07v2.07zm0-4.138h-2.069v-2.069h2.07v2.07zM32.586 105.759h-4.138V119h4.138a.414.414 0 0 0 .414-.414v-12.414a.414.414 0 0 0-.414-.413zm-.827 9.103h-2.07v-2.069h2.07v2.07zm0-4.138h-2.07v-2.069h2.07v2.07z"/>
        </g>
        <g fill="#FFF">
            <path fill-rule="nonzero" d="M21.055 102.949a5.726 5.726 0 0 1-4.914-2.836.224.224 0 0 1 0-.226 5.726 5.726 0 0 1 4.914-2.836 5.725 5.725 0 0 1 4.914 2.836c.041.07.041.156 0 .226a5.726 5.726 0 0 1-4.914 2.836zM16.587 100a5.284 5.284 0 0 0 4.468 2.504A5.284 5.284 0 0 0 25.523 100a5.284 5.284 0 0 0-4.468-2.504A5.284 5.284 0 0 0 16.587 100z"/>
            <path d="M21.055 97.875c-1.159 0-2.102.953-2.102 2.125 0 1.172.943 2.125 2.102 2.125 1.159 0 2.102-.953 2.102-2.125 0-1.172-.943-2.125-2.102-2.125z"/>
        </g>
        <path fill="#FFF" d="M60.957 36.517c-.136.765-.424 1.206-.813 1.474.143.924-.081 2.07-.494 2.79a.413.413 0 0 1-.432.213.445.445 0 0 1-.348-.35c-.173-.768-.411-1.648-.87-1.977-.459.329-.697 1.209-.87 1.977a.445.445 0 0 1-.348.35.413.413 0 0 1-.432-.214c-.413-.719-.637-1.865-.494-2.789-.39-.268-.677-.71-.813-1.474-.255-1.43.665-2.517 1.67-2.517.604 0 1.005.51 1.287.933.281-.423.683-.933 1.286-.933 1.006 0 1.926 1.087 1.671 2.517z"/>
    </g>
</svg>
