<svg xmlns="http://www.w3.org/2000/svg" width="220" height="127" viewBox="0 0 220 127">
    <g fill="none" fill-rule="evenodd">
        <g>
            <rect width="107.655" height="110.299" fill="#E1E5F0" fill-rule="nonzero" rx="7.555"/>
            <rect width="76.303" height="40.933" x="15.109" y="13.976" fill="#36B37E" fill-rule="nonzero" rx="1.511"/>
            <path fill="#FFF" d="M54.132 41.257l-.715.01.006-.01h-9.378c-.418 0-.577-.29-.354-.648l6.505-10.453c.223-.358.585-.372.816-.023l4.779 7.31 1.717-2.765c.22-.354.595-.357.828-.017l3.98 5.786c.238.344.095.634-.334.648l-3.303.102-.553.007.032.053h-4.026zm3.932-9.717c-.878 0-1.59-.719-1.59-1.605s.712-1.605 1.59-1.605c.878 0 1.59.719 1.59 1.605s-.712 1.605-1.59 1.605z"/>
            <path fill="#FFF" fill-rule="nonzero" d="M17.443 61.571h72.77c1.08 0 1.955.876 1.955 1.956v.01c0 1.08-.876 1.956-1.956 1.956h-72.77a1.956 1.956 0 0 1-1.955-1.956v-.01c0-1.08.876-1.956 1.956-1.956zm0 12.747h72.77c1.08 0 1.955.875 1.955 1.955v.011c0 1.08-.876 1.956-1.956 1.956h-72.77a1.956 1.956 0 0 1-1.955-1.956v-.01c0-1.08.876-1.956 1.956-1.956zm9.879-6.374h53.011c1.08 0 1.956.876 1.956 1.956v.01c0 1.08-.876 1.956-1.956 1.956H27.322a1.956 1.956 0 0 1-1.956-1.955V69.9c0-1.08.876-1.956 1.956-1.956zm4.704 12.747H75.63c1.08 0 1.955.875 1.955 1.956v.01c0 1.08-.875 1.956-1.955 1.956H32.026a1.956 1.956 0 0 1-1.955-1.956v-.01c0-1.08.875-1.956 1.955-1.956z"/>
        </g>
        <path fill="#36B37E" fill-rule="nonzero" d="M23.236 91.034H84.71a3.594 3.594 0 1 1 0 7.188H23.236a3.594 3.594 0 0 1 0-7.188z"/>
        <text fill="#FFF" font-family="CircularStd-Black, Circular Std" font-size="5" font-weight="700">
            <tspan x="34.911" y="96.168">Contribute Now</tspan>
        </text>
        <g transform="translate(79.702 19.265)">
            <rect width="139.385" height="106.899" fill="#FFF" fill-rule="nonzero" stroke="#F3F3F3" rx="7.555"/>
            <path fill="#36B37E" fill-rule="nonzero" d="M92.362 59.305h34.277a3.594 3.594 0 0 1 0 7.188H92.362a3.594 3.594 0 0 1 0-7.188z"/>
            <text fill="#FFF" font-family="CircularStd-Black, Circular Std" font-size="5" font-weight="700">
                <tspan x="92.425" y="64.438">Request Grant</tspan>
            </text>
        </g>
        <g fill-rule="nonzero" transform="translate(87.95 41.354)">
            <path fill="#E1E5F0" d="M1.889 13.85h48.239c1.043 0 1.889.846 1.889 1.889v1.397a1.889 1.889 0 0 1-1.889 1.888H1.888A1.889 1.889 0 0 1 0 17.136v-1.397c0-1.043.846-1.889 1.889-1.889zm0 8.408H56.63c1.043 0 1.889.846 1.889 1.889v1.397a1.889 1.889 0 0 1-1.889 1.888H1.89A1.889 1.889 0 0 1 0 25.544v-1.397c0-1.043.846-1.889 1.889-1.889zm0 16.816h61.243c1.043 0 1.889.846 1.889 1.889v1.397a1.889 1.889 0 0 1-1.889 1.888H1.89A1.889 1.889 0 0 1 0 42.36v-1.397c0-1.043.846-1.889 1.889-1.889zm0 8.408h41.737c1.043 0 1.889.846 1.889 1.889v1.397a1.889 1.889 0 0 1-1.89 1.888H1.89A1.889 1.889 0 0 1 0 50.768V49.37c0-1.043.846-1.889 1.889-1.889zm0 8.408H56.63c1.043 0 1.889.846 1.889 1.889v1.396a1.889 1.889 0 0 1-1.889 1.89H1.89A1.889 1.889 0 0 1 0 59.174V57.78c0-1.043.846-1.889 1.889-1.889zm0 8.408h61.243c1.043 0 1.889.846 1.889 1.889v1.396a1.889 1.889 0 0 1-1.889 1.89H1.89A1.889 1.889 0 0 1 0 67.582v-1.396c0-1.043.846-1.889 1.889-1.889z"/>
            <rect width="65.021" height="8.214" fill="#D8DEED" rx="1.889"/>
            <path fill="#E1E5F0" d="M82.347.755h41.978c1.043 0 1.888.846 1.888 1.89V4.11A1.889 1.889 0 0 1 124.325 6H82.347a1.889 1.889 0 0 1-1.89-1.889V2.644c0-1.043.846-1.889 1.89-1.889zm0 8.523h28.905c1.043 0 1.888.845 1.888 1.888v1.468a1.889 1.889 0 0 1-1.888 1.888H82.347a1.889 1.889 0 0 1-1.89-1.888v-1.468c0-1.043.846-1.888 1.89-1.888zm0 8.522h35.441c1.043 0 1.889.846 1.889 1.889v1.467a1.889 1.889 0 0 1-1.889 1.888H82.347a1.889 1.889 0 0 1-1.89-1.888v-1.467c0-1.043.846-1.889 1.89-1.889zm0 8.522h22.368c1.043 0 1.889.846 1.889 1.889v1.467a1.889 1.889 0 0 1-1.889 1.889H82.347a1.889 1.889 0 0 1-1.89-1.889v-1.467c0-1.043.846-1.889 1.89-1.889z"/>
        </g>
        <path fill="#979DAE" fill-rule="nonzero" d="M79.702 25.31a6.045 6.045 0 0 1 6.046-6.045h127.294a6.05 6.05 0 0 1 6.045 6.045v6.046H79.702V25.31z"/>
    </g>
</svg>
