<svg xmlns="http://www.w3.org/2000/svg" width="170" height="130" viewBox="0 0 170 130">
    <g fill="none" fill-rule="evenodd">
        <rect width="169" height="129" x=".5" y=".5" fill-rule="nonzero" stroke="#D8DEED" rx="4"/>
        <path fill="#36B37E" fill-rule="nonzero" d="M74.588 102.216H95.33a5.515 5.515 0 1 1 0 11.03l-20.742-.001a5.515 5.515 0 1 1 0-11.03z"/>
        <g transform="translate(47.29 32.833)">
            <ellipse cx="38.091" cy="14.968" fill="#D8DEED" fill-rule="nonzero" rx="15.091" ry="14.968"/>
            <path fill="#F2F6FB" d="M29.983 11.095h3.626V8.814c-.113 0-.198-.115-.198-.229v-.57c0-.114.113-.228.255-.228h8.668c.142 0 .227.114.227.228v.57c0 .114-.085.229-.17.229v2.28h3.598c.481 0 .878.4.878.885v9.639H48v1.169H28v-1.17h1.105V11.98c0-.485.396-.884.878-.884zm6.714 7.956v2.396h2.606V19.05h-2.606zm8.442-5.675h-1.983v1.996h1.983v-1.996zm-4.334 2.738h-1.983v1.996h1.983v-1.996zm0-2.795h-1.983v2.025h1.983v-2.025zm0-2.766h-1.983v1.996h1.983v-1.996zm4.334 8.356h-1.983v1.996h1.983v-1.996zm0-2.767h-1.983v1.997h1.983v-1.997zm-14.306-2.766h1.983v1.996h-1.983v-1.996zm4.334 2.738h2.011v1.996h-2.01v-1.996zm0-2.795h2.011v2.025h-2.01v-2.025zm0-2.766h2.011v1.996h-2.01v-1.996zm-4.334 8.356h1.983v1.996h-1.983v-1.996zm0-2.767h1.983v1.997h-1.983v-1.997z"/>
            <path fill="#E1E5F0" fill-rule="nonzero" d="M3.343 38.997H72.08a3.22 3.22 0 0 1 3.22 3.22V44.3a3.22 3.22 0 0 1-3.22 3.22H3.343a3.22 3.22 0 0 1-3.22-3.22v-2.084a3.22 3.22 0 0 1 3.22-3.22zm0 13.213H72.08a3.22 3.22 0 0 1 3.22 3.22v2.084a3.22 3.22 0 0 1-3.22 3.22H3.343a3.22 3.22 0 0 1-3.22-3.22V55.43a3.22 3.22 0 0 1 3.22-3.22z"/>
        </g>
        <path fill="#979DAE" fill-rule="nonzero" d="M0 3.999A4 4 0 0 1 3.993 0h162.014A3.995 3.995 0 0 1 170 3.999v10.705H0V4z"/>
        <ellipse cx="9.892" cy="7.519" fill="#FF5645" fill-rule="nonzero" rx="3.185" ry="3.175"/>
        <ellipse cx="20.286" cy="7.519" fill="#FFCB3D" fill-rule="nonzero" rx="3.185" ry="3.175"/>
        <ellipse cx="31.016" cy="7.519" fill="#3ABF7C" fill-rule="nonzero" rx="3.185" ry="3.175"/>
    </g>
</svg>
