<svg xmlns="http://www.w3.org/2000/svg" width="170" height="130" viewBox="0 0 170 130">
    <g fill="none" fill-rule="evenodd">
        <rect width="169" height="129" x=".5" y=".5" fill-rule="nonzero" stroke="#D8DEED" rx="4"/>
        <path fill="#979DAE" fill-rule="nonzero" d="M0 3.999A4 4 0 0 1 3.993 0h162.014A3.995 3.995 0 0 1 170 3.999v10.705H0V4z"/>
        <rect width="144.725" height="44.933" x="13" y="22" fill="#36B37E" fill-rule="nonzero" rx="1.511"/>
        <path fill="#FFF" d="M85.314 53.927l-.715.01.006-.01h-9.377c-.419 0-.577-.29-.354-.648l6.504-10.453c.223-.358.586-.373.816-.023l4.78 7.31 1.717-2.765c.22-.354.594-.357.828-.017l3.98 5.786c.238.344.095.634-.334.647l-3.304.103-.553.007.032.053h-4.026zm3.933-9.717c-.878 0-1.59-.719-1.59-1.605 0-.887.712-1.605 1.59-1.605.878 0 1.59.718 1.59 1.605 0 .886-.712 1.605-1.59 1.605z"/>
        <path fill="#E1E5F0" fill-rule="nonzero" d="M18.789 73.405h133.089c1.08 0 1.955.876 1.955 1.956v.003c0 1.08-.875 1.956-1.955 1.956H18.789a1.956 1.956 0 0 1-1.956-1.956v-.003c0-1.08.876-1.956 1.956-1.956zm0 14.724h133.089c1.08 0 1.955.875 1.955 1.955v.004c0 1.08-.875 1.956-1.955 1.956H18.789a1.956 1.956 0 0 1-1.956-1.956v-.004c0-1.08.876-1.955 1.956-1.955zm17.65-7.362h97.788c1.08 0 1.956.875 1.956 1.956v.003c0 1.08-.876 1.956-1.956 1.956H36.44a1.956 1.956 0 0 1-1.955-1.956v-.003c0-1.08.875-1.956 1.955-1.956zm8.405 15.723h80.979c1.08 0 1.955.876 1.955 1.956v.004c0 1.08-.875 1.955-1.955 1.955H44.844a1.956 1.956 0 0 1-1.955-1.955v-.004c0-1.08.875-1.956 1.955-1.956z"/>
        <path fill="#36B37E" fill-rule="nonzero" d="M37.594 109h93.848c1.03 0 1.995.278 2.823.764a5.622 5.622 0 0 1 2.007 2.007c.486.828.764 1.793.764 2.823s-.278 1.995-.764 2.823a5.622 5.622 0 0 1-2.007 2.007 5.568 5.568 0 0 1-2.823.764H37.594a5.568 5.568 0 0 1-2.823-.764 5.622 5.622 0 0 1-2.007-2.007 5.568 5.568 0 0 1-.764-2.823c0-1.03.278-1.995.764-2.823a5.622 5.622 0 0 1 2.007-2.007 5.568 5.568 0 0 1 2.823-.764z"/>
        <text fill="#FFF" font-family="CircularStd-Black, Circular Std" font-size="7" font-weight="700" transform="translate(32 109)">
            <tspan x="23.031" y="8">Create Fundraiser</tspan>
        </text>
        <ellipse cx="9.892" cy="7.519" fill="#FF5645" fill-rule="nonzero" rx="3.185" ry="3.175"/>
        <ellipse cx="20.286" cy="7.519" fill="#FFCB3D" fill-rule="nonzero" rx="3.185" ry="3.175"/>
        <ellipse cx="31.016" cy="7.519" fill="#3ABF7C" fill-rule="nonzero" rx="3.185" ry="3.175"/>
    </g>
</svg>
